<svg width="86" height="29" viewBox="0 0 86 29" fill="none" xmlns="http://www.w3.org/2000/svg">
<rect width="86" height="29" fill="#C5BDBD"/>
<g id="3" clip-path="url(#clip0_0_1)">
<rect width="1920" height="7227" transform="translate(-100 -44)" fill="white"/>
<rect id="Rectangle 57" x="-100" y="-44" width="1920" height="1127" fill="#050023"/>
<g id="Group 30">
<g id="Frame" clip-path="url(#clip1_0_1)">
<path id="Vector" d="M0.115967 11.2566C0.115967 9.5587 0.115967 7.97361 0.115967 6.86393C1.30862 5.87109 2.17228 5.06614 3.12178 4.40284C3.5187 4.12559 4.09795 4.14838 4.50758 3.8747C4.94681 3.59298 5.40249 3.3365 5.82171 3.02373C6.48472 2.5291 7.12334 1.99693 7.77134 1.47907C7.79801 1.45762 7.80822 1.40624 7.83594 1.39328C9.49865 0.62095 11.117 -0.36563 13.047 0.13682C13.4027 1.36937 15.1013 0.535384 15.3915 1.88322C15.408 1.95962 15.563 2.07602 15.6201 2.05703C16.7052 1.69667 17.3399 2.75295 17.9008 3.25295C18.5077 3.79427 19.0637 3.96429 19.7287 4.23886C20.5166 4.56414 21.136 5.3425 21.854 5.88561C22.1128 6.08132 22.4456 6.16465 22.6616 6.26184C23.3623 7.44144 24.3252 8.67981 23.4905 9.98586C22.9381 10.8502 22.358 11.98 21.0787 12.2879C21.0352 11.8542 20.9074 11.5044 20.9874 11.2224C21.4281 9.66862 20.0655 8.82748 19.7573 7.57348C19.7227 7.43251 19.3454 7.37732 19.121 7.30338C18.6634 7.15302 18.0354 7.3141 17.9612 6.48435C17.9521 6.38069 17.5622 6.30294 17.3426 6.23681C16.8671 6.09383 16.1499 6.36885 16.1493 5.41198C16.1493 5.35434 15.9251 5.2556 15.8005 5.24599C14.6104 5.15417 13.9205 4.24556 13.1656 3.42989C12.6384 2.86019 10.214 3.26702 9.64388 3.83404C9.08277 4.39234 8.35225 4.75761 7.68654 5.19103C7.31545 5.43254 6.92519 5.64031 6.59265 5.98101C5.40249 6.22654 4.67115 7.24305 3.71623 7.87039C2.63692 8.57927 2.95946 9.18784 3.09427 10.0676C4.32027 10.233 5.2456 10.9561 5.98986 12.016C6.09779 12.1697 6.45305 12.0973 6.66474 12.1994C7.10209 12.4101 7.51964 12.6677 7.88886 13.0575C8.4706 13.4478 9.3403 12.9894 9.72723 14.0908C9.8187 14.3513 10.6884 14.413 11.1853 14.3701C12.2838 14.2756 13.575 14.7776 14.3249 13.3833C15.294 13.6525 15.2061 12.2025 16.0051 12.1952C16.0022 11.9105 16.1014 11.5459 15.9739 11.3585C15.7455 11.0225 15.4126 10.7289 15.0667 10.5321C14.2574 10.0717 13.4008 9.70727 12.5901 9.24973C11.9471 8.88691 11.3439 8.44321 10.6071 7.95931C10.6071 7.54198 10.6071 6.9562 10.6071 6.47005C10.9682 6.13047 11.2678 5.7853 11.6266 5.53933C11.7996 5.42092 12.084 5.48951 12.318 5.47342C12.3642 6.32618 13.0647 5.98525 13.4519 6.22207C14.1343 6.6394 14.7389 7.20306 15.374 7.70842C15.5434 7.84313 15.7036 8.10877 15.8701 8.11078C17.0644 8.1253 17.487 9.23543 18.264 9.86634C19.8686 11.1693 18.718 12.7387 18.9918 13.715C17.8447 14.6073 16.93 15.3318 15.9991 16.0316C15.8086 16.1748 15.5578 16.2266 15.3332 16.316C14.9012 16.4878 14.2157 16.2503 14.2118 17.1357C14.2116 17.1951 13.8492 17.2498 13.6569 17.3117C13.1541 17.4737 12.3922 17.1584 12.3313 18.1368C11.7706 18.061 11.2039 18.0143 10.653 17.889C10.5132 17.8571 10.4209 17.4279 10.31 17.4294C8.96525 17.4496 8.23536 16.3321 7.2544 15.6522C6.38595 15.0503 5.33998 14.7519 4.41757 14.2282C3.8402 13.9007 3.33972 13.4132 2.8207 12.9758C2.72881 12.8982 2.74964 12.6411 2.65922 12.5915C1.82286 12.1331 0.974204 11.7021 0.115967 11.2566Z" fill="white"/>
<path id="Vector_2" d="M47.3424 20.3113C46.7238 20.4003 46.2454 20.4691 45.767 20.5377C45.7991 20.6243 45.8312 20.7113 45.8632 20.7979C45.4549 21.0193 45.0594 21.392 44.6358 21.4326C43.5338 21.5388 42.418 21.5446 41.3108 21.5003C40.6657 21.4746 39.9612 21.6098 39.5153 20.7378C39.3584 20.4311 38.6356 20.4568 38.2864 20.1672C37.9572 19.8942 37.5328 19.6878 37.3186 19.3348C36.8514 18.5649 36.2459 17.7551 36.1403 16.8988C35.9465 15.3268 36.0692 13.7096 36.0674 12.1111C36.0659 10.7679 37.1246 10.0964 37.643 9.11626C38.2435 7.98111 39.6447 8.56086 39.9708 7.34841C39.9975 7.249 40.3444 7.21392 40.544 7.20789C41.8258 7.16991 43.1093 7.10177 44.3893 7.14444C44.8927 7.16119 45.5497 6.96951 45.7747 7.91833C45.8364 8.17816 46.76 8.20296 47.1897 8.46055C47.5114 8.74607 47.897 8.98311 48.1298 9.33632C48.2594 9.53292 48.2267 9.98041 48.1012 10.2112C47.9206 10.5441 47.5891 10.7829 47.1728 11.2174C46.7183 11.1839 46.0516 11.524 45.5174 10.4784C44.9912 9.44869 42.2946 8.87252 41.3106 9.38212C40.7878 9.65289 40.3261 10.1091 39.9135 10.5619C39.348 11.1826 38.7238 11.8095 38.3735 12.5662C38.0893 13.1799 38.1566 13.9873 38.0951 14.7116C37.9876 15.9783 38.8154 16.6713 39.5591 17.4215C40.0481 17.9146 40.4971 18.453 40.9832 18.9494C41.1349 19.1043 41.3458 19.281 41.5354 19.2888C42.3315 19.3225 43.1635 19.4434 43.9165 19.2446C44.5139 19.0868 45.0294 18.5312 45.5532 18.1121C45.8301 17.8905 46.0628 17.5969 46.2858 17.3094C46.4019 17.1597 46.5623 16.89 46.51 16.7848C46.42 16.6039 46.186 16.4097 46.0003 16.395C45.2052 16.332 44.4055 16.3076 43.6079 16.3165C42.6812 16.3268 42.8303 15.565 42.7497 14.9857C42.6551 14.3054 43.0662 14.1785 43.5817 14.1801C45.1781 14.1848 46.7752 14.1535 48.3704 14.2022C48.6909 14.212 49.2591 14.4917 49.2718 14.6812C49.3085 15.2281 49.1416 15.7987 49.0051 16.3456C48.9705 16.4839 48.6201 16.5976 48.6349 16.674C48.9278 18.1948 47.2886 18.8619 47.3424 20.3113Z" fill="white"/>
<path id="Vector_3" d="M18.4648 24.8897C17.6812 25.4265 16.8973 25.9634 16.1139 26.5004C15.812 26.7073 15.508 26.9113 15.2109 27.126C15.16 27.1629 15.1521 27.2853 15.1025 27.3049C13.479 27.9455 11.9333 29.1885 10.0894 28.4291C9.24862 28.0829 8.54665 27.3612 7.76155 26.8452C7.06583 26.3881 6.34095 25.9819 5.63106 25.5494C5.28143 25.3363 4.93639 25.1144 4.67114 24.7478C4.11691 24.4846 3.5312 24.2771 3.01739 23.9424C2.52732 23.6234 2.11227 23.1721 1.77222 22.5984C1.2982 22.513 0.824183 22.4277 0.240565 22.3225C0.179098 21.8057 0.0428307 21.2608 0.0722095 20.7262C0.0986713 20.2445 0.306615 19.7742 0.434549 19.2988C1.00837 19.4974 1.78389 18.9809 2.14373 20.0577C2.25854 20.4011 3.14949 20.4465 3.61517 20.7622C3.98876 20.9898 4.35694 21.2282 4.73699 21.4424C5.51667 21.8823 6.33615 22.244 6.85831 23.0879C6.97582 23.2778 7.30816 23.3157 7.54256 23.4214C7.97241 23.6153 8.64958 23.3644 8.72897 24.2174C8.73814 24.3157 9.1409 24.3439 9.33488 24.4567C9.7266 24.6841 10.0833 25.1153 10.4846 25.1618C11.3837 25.2657 12.4761 25.5161 13.1668 25.0963C14.0161 24.5802 14.5958 23.5519 15.714 23.4006C15.8947 23.3763 16.0697 23.1551 16.2106 22.9893C16.3154 22.866 16.3408 22.5671 16.4364 22.5479C17.1759 22.4006 17.7537 22.118 18.409 21.5993C18.9636 21.1605 20.1163 20.9728 20.5038 20.356C21.225 19.2081 22.687 19.7293 23.259 18.5488C23.3623 18.5566 23.4659 18.5645 23.5692 18.5723C23.5951 19.2553 23.7572 19.9751 23.607 20.61C23.4676 21.1989 22.9946 21.6969 22.8137 21.9952C22.342 22.4992 22.0763 22.8566 21.7436 23.1149C21.4788 23.3204 21.1371 23.4205 20.8195 23.5367C20.6262 23.6075 20.2603 23.5713 20.2344 23.6658C19.9342 24.7608 19.0559 24.414 18.3781 24.5592C18.4073 24.6694 18.4361 24.7795 18.4648 24.8897Z" fill="white"/>
<path id="Vector_4" d="M74.8912 21.5703C72.1323 20.5885 69.1156 22.7949 66.6693 20.2256C66.3948 19.8666 66.0781 19.5346 65.86 19.1399C65.6918 18.8356 65.5883 18.4578 65.5612 18.1035C65.5099 17.4384 65.571 16.7632 65.5204 16.0981C65.4164 14.7309 66.3294 14.0772 67.0199 13.1388C68.279 11.4273 69.804 12.3046 71.2132 12.2494C72.0245 12.2177 72.3531 12.047 72.3108 11.1534C72.2633 10.1521 72.415 9.12506 72.2635 8.14764C72.0839 6.9897 72.6369 6.26809 73.2501 5.52547C73.3435 5.41242 73.6779 5.33892 73.692 5.36752C74.0085 5.99932 75.0037 5.92292 74.9983 6.91776C74.9724 11.5281 74.9845 16.1388 74.9795 20.7493C74.9789 20.9263 74.9426 21.1036 74.8912 21.5703ZM68.8089 14.3667C68.3124 15.2847 67.9328 15.9299 67.6194 16.6102C67.5496 16.7617 67.6817 17.0555 67.7779 17.2514C67.9334 17.5677 68.2449 17.8372 68.298 18.1624C68.4422 19.0476 68.8835 19.4185 69.698 19.3698C70.1124 19.345 70.5289 19.3588 70.9446 19.3639C71.6434 19.3727 72.086 18.9877 72.1166 18.267C72.1704 17.0043 72.1316 15.7369 72.1316 14.3669C70.7817 14.3667 69.6882 14.3667 68.8089 14.3667Z" fill="white"/>
<path id="Vector_5" d="M3.74537 18.5531C3.17759 18.4798 2.66502 18.4136 2.15246 18.3473C2.18809 18.293 2.22372 18.2385 2.25935 18.1842C1.6824 17.6377 1.1169 17.0763 0.524744 16.5497C0.01176 16.0933 -0.216395 13.9763 0.262834 13.5183C0.382433 13.4041 0.79207 13.4095 0.882291 13.5259C1.60614 14.4606 2.98986 14.5591 3.51639 15.4099C4.14438 16.4246 5.5204 15.8708 5.87961 17.1603C5.98754 17.5475 6.66096 17.7872 7.10748 18.0254C8.03885 18.5218 8.99314 18.9688 9.93472 19.4438C10.1383 19.5463 10.3842 19.6321 10.5146 19.8077C11.1084 20.6064 11.8287 20.5385 12.5313 19.831C12.9099 19.45 13.5708 19.3917 14.0434 19.0892C14.4114 18.8564 14.7877 18.6373 15.145 18.3868C15.508 18.1326 15.8528 17.8486 16.2041 17.5754C16.2831 17.514 16.3551 17.3864 16.4314 17.3853C17.7451 17.3667 18.4673 16.3869 19.3068 15.508C19.6085 15.1921 20.2886 15.2919 20.7959 15.2021C20.7601 15.1174 20.7243 15.0326 20.6882 14.9479C21.0862 14.7012 21.4733 14.4307 21.8861 14.2173C22.1286 14.092 22.4241 14.0884 22.6739 13.9747C22.9714 13.8391 23.2456 13.6441 23.53 13.4749C23.5515 14.0504 23.7595 15.027 23.5621 15.1324C22.6916 15.5982 22.9912 16.4709 22.5766 16.9045C21.6383 17.6373 20.7032 18.375 19.7581 19.0975C19.6252 19.1992 19.4418 19.2235 19.2843 19.2903C18.7894 19.4999 18.1254 19.3113 17.9312 20.2201C17.8814 20.4534 16.9413 20.4679 16.5062 20.7534C16.1397 20.9994 15.7686 21.2373 15.4079 21.4927C14.6535 22.0269 13.8627 22.515 13.166 23.1258C12.5538 23.6624 10.4698 23.5963 9.83159 23.0034C9.26005 22.4726 8.59872 22.0474 7.95488 21.6133C7.50795 21.3122 6.74202 21.4976 6.67409 20.6093C6.66951 20.5483 6.35676 20.4433 6.21132 20.4771C5.13743 20.7273 4.85406 19.3046 3.92248 19.2331C3.84789 19.2275 3.80246 18.7854 3.74537 18.5531Z" fill="white"/>
<path id="Vector_6" d="M85.9999 16.8684C85.8268 17.3555 85.6049 17.8003 85.5136 18.2739C85.3079 19.3396 84.5151 19.8288 83.8996 20.5587C82.5313 22.1816 80.9655 21.2772 79.4822 21.3996C79.294 21.4151 79.0403 21.3568 78.9123 21.2256C78.3854 20.6847 77.8782 20.1184 77.3996 19.5281C77.1817 19.2592 76.9133 18.9202 76.8977 18.6003C76.8368 17.3436 76.8164 16.0789 76.8773 14.8224C76.9508 13.3019 77.9226 12.2937 79.3517 12.2144C80.4217 12.1552 81.5033 12.1038 82.5657 12.2099C83.2531 12.2785 84.0063 11.9657 84.5906 13.0273C84.9481 13.6772 85.3667 14.204 85.4655 15.0041C85.5436 15.6348 85.812 16.2384 85.9999 16.8684ZM79.9752 19.2697C81.3291 19.6582 82.7539 19.4875 83.4 18.0313C83.9244 16.849 83.6656 15.2941 82.5297 14.5557C81.87 14.127 80.5121 13.9981 79.9866 14.4411C78.3489 15.8218 78.4362 17.5773 79.9752 19.2697Z" fill="white"/>
<path id="Vector_7" d="M56.9735 12.2424C57.6433 12.2424 58.2155 12.2424 58.8543 12.2424C58.8543 15.3009 58.8543 18.2913 58.8543 21.3649C57.9557 21.4429 57.0014 21.9 56.5928 20.4983C55.3745 22.1373 53.8193 21.325 52.6821 21.3985C52.2149 20.955 51.8986 20.7077 51.6486 20.3989C51.4884 20.2012 51.3394 19.9152 51.3327 19.6644C51.2733 17.4012 51.2398 15.1374 51.2137 12.8736C51.2031 11.9556 51.8684 12.2161 52.3437 12.177C52.8727 12.1332 53.3007 12.1875 53.2844 12.969C53.2534 14.4542 53.2788 15.941 53.2844 17.4271C53.2913 19.2877 53.4265 19.424 55.1997 19.3739C55.4062 19.3681 55.6122 19.3522 55.6579 19.3498C57.4358 17.6735 56.7336 15.5386 56.8732 13.5816C56.9041 13.1468 56.9382 12.7123 56.9735 12.2424Z" fill="white"/>
<path id="Vector_8" d="M63.637 21.3446C63.1674 21.3879 62.7967 21.415 62.4275 21.4581C61.7945 21.5318 61.5724 21.2246 61.578 20.5582C61.599 18.0696 61.5911 15.5806 61.5849 13.0918C61.5834 12.5398 61.6957 12.0749 62.3218 12.1928C62.7923 12.2815 63.6039 11.8584 63.6199 12.8166C63.6676 15.6295 63.637 18.4443 63.637 21.3446Z" fill="white"/>
<path id="Vector_9" d="M63.6321 7.34344C63.6321 7.90196 63.7859 8.557 63.5865 9.04672C63.4065 9.48907 62.8566 9.77794 62.4328 10.0731C62.3255 10.1477 62.0532 10.0266 61.9015 9.92115C61.8136 9.86016 61.809 9.65283 61.7773 9.50873C61.6629 8.98863 60.4105 9.24823 60.9837 8.33225C61.854 6.94152 61.9982 6.94108 63.6321 7.34344Z" fill="white"/>
</g>
</g>
</g>
<defs>
<clipPath id="clip0_0_1">
<rect width="1920" height="7227" fill="white" transform="translate(-100 -44)"/>
</clipPath>
<clipPath id="clip1_0_1">
<rect width="86" height="28.6667" fill="white"/>
</clipPath>
</defs>
</svg>
